<svg xmlns="http://www.w3.org/2000/svg" width="159.072" height="16" viewBox="0 0 159.072 16">
  <path id="Path_40" data-name="Path 40" d="M1.764-14.687h3.4v6.122h6.276v-6.122h3.4V.783h-3.4v-6.21H5.167V.783h-3.4ZM26.073,1.048a8.434,8.434,0,0,1-3.293-.63,8.188,8.188,0,0,1-2.6-1.7,7.613,7.613,0,0,1-1.7-2.519,7.939,7.939,0,0,1-.608-3.1v-.044a7.815,7.815,0,0,1,.619-3.1A8.012,8.012,0,0,1,20.206-12.6a7.973,7.973,0,0,1,2.608-1.724,8.516,8.516,0,0,1,3.3-.63,8.434,8.434,0,0,1,3.293.63,8.188,8.188,0,0,1,2.6,1.7,7.613,7.613,0,0,1,1.7,2.519A7.939,7.939,0,0,1,34.316-7v.044a7.815,7.815,0,0,1-.619,3.1,8.012,8.012,0,0,1-1.713,2.541A7.973,7.973,0,0,1,29.377.418,8.516,8.516,0,0,1,26.073,1.048Zm.044-3.138a4.628,4.628,0,0,0,1.89-.376A4.321,4.321,0,0,0,29.466-3.5a4.9,4.9,0,0,0,.95-1.536,5.066,5.066,0,0,0,.343-1.867v-.044a5.153,5.153,0,0,0-.343-1.878,4.671,4.671,0,0,0-.972-1.547,4.708,4.708,0,0,0-1.481-1.05,4.514,4.514,0,0,0-1.89-.387,4.65,4.65,0,0,0-1.878.376,4.294,4.294,0,0,0-1.47,1.039,4.9,4.9,0,0,0-.95,1.536A5.066,5.066,0,0,0,21.433-7v.044a5.153,5.153,0,0,0,.343,1.878,4.671,4.671,0,0,0,.972,1.547,4.673,4.673,0,0,0,1.492,1.05A4.535,4.535,0,0,0,26.118-2.09ZM44.792,1.048a8.822,8.822,0,0,1-3.3-.6,7.618,7.618,0,0,1-2.564-1.657,7.49,7.49,0,0,1-1.669-2.519,8.325,8.325,0,0,1-.6-3.182v-.044a7.939,7.939,0,0,1,.608-3.1A7.95,7.95,0,0,1,38.957-12.6a7.9,7.9,0,0,1,2.575-1.724,8.238,8.238,0,0,1,3.238-.63,11.4,11.4,0,0,1,1.89.144,9,9,0,0,1,1.58.409,7.358,7.358,0,0,1,1.37.663,10.218,10.218,0,0,1,1.238.906L48.7-10.245a7.623,7.623,0,0,0-1.79-1.16,5.481,5.481,0,0,0-2.254-.409,3.961,3.961,0,0,0-1.735.387,4.686,4.686,0,0,0-1.414,1.039,4.762,4.762,0,0,0-.95,1.525A5.066,5.066,0,0,0,40.217-7v.044A5.428,5.428,0,0,0,40.56-5a4.646,4.646,0,0,0,.972,1.558,4.395,4.395,0,0,0,1.492,1.028,4.772,4.772,0,0,0,1.878.365,5.321,5.321,0,0,0,3.2-.928v-2.21H44.681V-8.123H51.4v6.718A11.391,11.391,0,0,1,48.571.33,9.322,9.322,0,0,1,44.792,1.048ZM54.67-14.687H66.339v3.028H58.051v3.138h7.293v3.028H58.051v3.249h8.4V.783H54.67Zm21.436,0H82.14a9.12,9.12,0,0,1,3.337.586,7.879,7.879,0,0,1,2.6,1.624,7.233,7.233,0,0,1,1.691,2.442A7.684,7.684,0,0,1,90.361-7v.044a7.765,7.765,0,0,1-.6,3.05,7.205,7.205,0,0,1-1.691,2.453,8.027,8.027,0,0,1-2.6,1.635,8.97,8.97,0,0,1-3.337.6H76.107Zm6.033,12.4a5.254,5.254,0,0,0,1.9-.331,4.194,4.194,0,0,0,1.481-.95,4.215,4.215,0,0,0,.95-1.47A5.1,5.1,0,0,0,86.8-6.908v-.044a5.165,5.165,0,0,0-.331-1.89,4.215,4.215,0,0,0-.95-1.47,4.325,4.325,0,0,0-1.481-.961,5.1,5.1,0,0,0-1.9-.343H79.51v9.326Zm11.249-12.4h11.669v3.028H96.77v3.138h7.293v3.028H96.77v3.249h8.4V.783H93.388ZM113.7,1A10.245,10.245,0,0,1,110.228.4a9.183,9.183,0,0,1-3.094-1.867l2.011-2.409a10.1,10.1,0,0,0,2.177,1.37A5.822,5.822,0,0,0,113.764-2a2.974,2.974,0,0,0,1.646-.387A1.217,1.217,0,0,0,116-3.46V-3.5a1.342,1.342,0,0,0-.122-.586,1.228,1.228,0,0,0-.464-.475,4.86,4.86,0,0,0-.95-.442,16.445,16.445,0,0,0-1.58-.464q-1.171-.309-2.122-.652a5.766,5.766,0,0,1-1.613-.862,3.531,3.531,0,0,1-1.028-1.293,4.5,4.5,0,0,1-.365-1.923v-.044a4.46,4.46,0,0,1,.4-1.912,4.354,4.354,0,0,1,1.116-1.47,5.024,5.024,0,0,1,1.713-.95,6.885,6.885,0,0,1,2.188-.331,9.251,9.251,0,0,1,3.127.508,9.065,9.065,0,0,1,2.619,1.459l-1.768,2.564a11.207,11.207,0,0,0-2.033-1.116,5.2,5.2,0,0,0-1.989-.409,2.406,2.406,0,0,0-1.492.387,1.175,1.175,0,0,0-.5.961v.044a1.4,1.4,0,0,0,.144.652,1.3,1.3,0,0,0,.519.5,4.886,4.886,0,0,0,1.028.42q.652.2,1.646.464a15.741,15.741,0,0,1,2.088.7,5.825,5.825,0,0,1,1.547.928,3.539,3.539,0,0,1,.95,1.271,4.321,4.321,0,0,1,.32,1.746v.044a4.759,4.759,0,0,1-.42,2.044,4.2,4.2,0,0,1-1.171,1.5A5.293,5.293,0,0,1,116,.683,7.772,7.772,0,0,1,113.7,1Zm8.8-15.691h3.4V.783h-3.4ZM137.212,1.048a8.822,8.822,0,0,1-3.3-.6,7.618,7.618,0,0,1-2.564-1.657,7.49,7.49,0,0,1-1.669-2.519,8.325,8.325,0,0,1-.6-3.182v-.044a7.939,7.939,0,0,1,.608-3.1,7.951,7.951,0,0,1,1.691-2.541,7.9,7.9,0,0,1,2.575-1.724,8.238,8.238,0,0,1,3.238-.63,11.4,11.4,0,0,1,1.89.144,9,9,0,0,1,1.58.409,7.358,7.358,0,0,1,1.37.663,10.22,10.22,0,0,1,1.238.906l-2.144,2.586a7.623,7.623,0,0,0-1.79-1.16,5.481,5.481,0,0,0-2.254-.409,3.961,3.961,0,0,0-1.735.387,4.686,4.686,0,0,0-1.414,1.039,4.762,4.762,0,0,0-.95,1.525A5.066,5.066,0,0,0,132.637-7v.044A5.428,5.428,0,0,0,132.979-5a4.645,4.645,0,0,0,.972,1.558,4.4,4.4,0,0,0,1.492,1.028,4.772,4.772,0,0,0,1.878.365,5.321,5.321,0,0,0,3.2-.928v-2.21H137.1V-8.123h6.718v6.718A11.391,11.391,0,0,1,140.991.33,9.322,9.322,0,0,1,137.212,1.048Zm9.878-15.735h3.138l7.249,9.525v-9.525h3.359V.783h-2.9l-7.492-9.834V.783H147.09Z" transform="translate(-1.764 14.952)"/>
</svg>
